<?xml version="1.0" encoding="utf-8"?>
<!DOCTYPE svg PUBLIC "-//W3C//DTD SVG 1.1//EN" "http://www.w3.org/Graphics/SVG/1.1/DTD/svg11.dtd">
<svg version="1.1" xmlns="http://www.w3.org/2000/svg" xmlns:xlink="http://www.w3.org/1999/xlink" width="499" height="218" viewBox="0 0 499.1 217.7" xml:space="preserve"><defs><rect width="499.1" height="217.7"/></defs><clipPath><use xlink:href="#SVGID_1_"/></clipPath><path d="M109.6 80.9c-16 0-28.9 10.8-28.9 28 0 18.4 14.3 28 29.4 28 11.6 0 20.7-4.7 25.3-12.2l-14.8-7.5c-2.6 2.6-5.8 2.9-9.9 2.9 -4.1 0-8.5-2.3-8.9-5.9h35c0.1-1.2 0.2-3.2 0.2-4.8C137 92.9 125.9 80.9 109.6 80.9M101.6 101.9c0.4-2.9 3.2-6.3 8.2-6.3 4.5 0 7.5 2.7 7.5 6.3H101.6z" style="clip-path:url(#SVGID_2_);fill:#FFF"/><defs><rect width="499.1" height="217.7"/></defs><clipPath><use xlink:href="#SVGID_3_"/></clipPath><path d="M142.8 64.9v70h31.7c13.6 0 27.2-5.1 27.2-20.5 0-8.7-6.4-14.3-13.1-15.9v-0.3c6.1-2.4 10.3-7.2 10.3-14.7 0-16.2-15.9-18.6-27.3-18.6H142.8zM177.9 111.5c0 3.2-2.6 4.8-6.2 4.8h-7v-9.5h6C173.6 106.9 177.9 107.8 177.9 111.5M176.7 87.1c0 3.2-2.4 4.6-5.6 4.6h-6.3v-8.6h5.8C174.2 83.2 176.7 84.4 176.7 87.1" style="clip-path:url(#SVGID_4_);fill:#FFF"/><defs><rect width="499.1" height="217.7"/></defs><clipPath><use xlink:href="#SVGID_5_"/></clipPath><polygon points="331.3 45.1 310.4 45.1 299.4 59.3 316.1 59.3 " style="clip-path:url(#SVGID_6_);fill:#FFF"/><defs><rect width="499.1" height="217.7"/></defs><clipPath><use xlink:href="#SVGID_7_"/></clipPath><path d="M297.9 64.9l-27.5 69.7 -17.7-28.1c7.8-3.6 12.3-10.4 12.3-18.9 0-17.8-14.4-22.7-28.3-22.7h-28.4C191.5 26.7 153.2 0 108.8 0 48.8 0 0 48.8 0 108.8s48.8 108.8 108.8 108.8c51.1 0 94-35.3 105.7-82.9h14.8v-25h0.7l13.4 25h26.9 0.2 24.7l3.5-10.3h22.2l3.7 10.3h25.6l-27.3-69.9L297.9 64.9 297.9 64.9zM108.8 208.8c-55.1 0-99.9-44.8-99.9-100 0-55.1 44.8-100 100-100 55.1 0 100 44.8 100 100C208.8 164 164 208.8 108.8 208.8M233.8 94.4h-4.6V83.2h5.6c3 0 7.2 0.5 7.2 5.4C242 93.6 237.1 94.4 233.8 94.4M304.3 106.6l5.7-17.3 5.6 17.3H304.3z" style="clip-path:url(#SVGID_8_);fill:#FFF"/><defs><rect width="499.1" height="217.7"/></defs><clipPath><use xlink:href="#SVGID_9_"/></clipPath><polygon points="396.1 100.4 395.8 100.4 375.8 64.9 352.4 64.9 352.4 134.8 374.7 134.8 373.7 101.4 374.1 101.4 393.5 134.8 417.5 134.8 417.5 64.9 395.2 64.9 " style="clip-path:url(#SVGID_10_);fill:#FFF"/><defs><rect width="499.1" height="217.7"/></defs><clipPath><use xlink:href="#SVGID_11_"/></clipPath><path d="M471.8 64.9h-25l-27.6 70h24.9l3.5-10.3h22.2l3.7 10.3h25.6L471.8 64.9zM453.3 106.6l5.7-17.3 5.6 17.3H453.3z" style="clip-path:url(#SVGID_12_);fill:#FFF"/></svg>